<svg xmlns="http://www.w3.org/2000/svg" viewBox="0 0 200 200">
  <rect width="200" height="200" fill="#0A0A0A"/>
  <g transform="translate(20,20)" fill="#00FF88">
    <rect x="0" y="0" width="160" height="160" rx="4" fill="none" stroke="#2A2A2A" stroke-width="2"/>
    <rect x="8" y="8" width="24" height="24" rx="2"/>
    <rect x="40" y="8" width="24" height="24" rx="2"/>
    <rect x="72" y="8" width="24" height="24" rx="2"/>
    <rect x="104" y="8" width="24" height="24" rx="2"/>
    <rect x="136" y="8" width="16" height="24" rx="2"/>
    <rect x="8" y="40" width="24" height="24" rx="2"/>
    <rect x="40" y="40" width="8" height="8" rx="1"/>
    <rect x="56" y="40" width="8" height="8" rx="1"/>
    <rect x="72" y="40" width="8" height="8" rx="1"/>
    <rect x="88" y="40" width="8" height="8" rx="1"/>
    <rect x="104" y="40" width="24" height="24" rx="2"/>
    <rect x="136" y="40" width="16" height="24" rx="2"/>
    <rect x="8" y="72" width="24" height="24" rx="2"/>
    <rect x="40" y="72" width="8" height="8" rx="1"/>
    <rect x="56" y="72" width="8" height="8" rx="1"/>
    <rect x="72" y="72" width="8" height="8" rx="1"/>
    <rect x="88" y="72" width="8" height="8" rx="1"/>
    <rect x="104" y="72" width="24" height="24" rx="2"/>
    <rect x="136" y="72" width="16" height="24" rx="2"/>
    <rect x="8" y="104" width="24" height="24" rx="2"/>
    <rect x="40" y="104" width="24" height="24" rx="2"/>
    <rect x="72" y="104" width="24" height="24" rx="2"/>
    <rect x="104" y="104" width="24" height="24" rx="2"/>
    <rect x="136" y="104" width="16" height="24" rx="2"/>
    <rect x="8" y="136" width="24" height="16" rx="2"/>
    <rect x="40" y="136" width="24" height="16" rx="2"/>
    <rect x="72" y="136" width="24" height="16" rx="2"/>
    <rect x="104" y="136" width="24" height="16" rx="2"/>
    <rect x="136" y="136" width="16" height="16" rx="2"/>
  </g>
  <text x="100" y="193" font-family="Inter,Arial,sans-serif" font-size="6" fill="#888888" text-anchor="middle">ESCANEA EL MENÚ</text>
</svg>
